<?xml version="1.0" encoding="utf-8"?>
<!-- Generator: Adobe Illustrator 19.2.0, SVG Export Plug-In . SVG Version: 6.00 Build 0)  -->
<svg version="1.1" id="Layer_1" xmlns="http://www.w3.org/2000/svg" xmlns:xlink="http://www.w3.org/1999/xlink" x="0px" y="0px"
	 viewBox="0 0 1080 1080" style="enable-background:new 0 0 1080 1080;" xml:space="preserve">
<style type="text/css">
	.st0{fill:#ED1C24;}
	.st1{fill:#091B49;}
	.st2{fill:#0FC6F7;}
	.st3{fill:#C30A14;}
	.st4{fill:none;}
	.st5{fill:#019BE1;}
</style>
<g>
	<path class="st0" d="M728.3,558L728.3,558c-0.5,0-0.9-0.1-1.3-0.2C727.3,557.8,727.7,557.9,728.3,558z"/>
	<path class="st1" d="M781.3,535.5C781.3,535.5,781.3,535.5,781.3,535.5c-0.2,1.5-0.4,3.1-0.8,4.6c-0.1,0.3-0.1,0.5-0.2,0.7
		c0,0,0,0.1,0,0.1c0,0,0,0.1,0,0.1c-4.6,18.7-24.7,24.8-24.7,24.8l1.7-3.6c1.2-0.6,2.4-1.4,3.6-2.1c0.3-0.2,0.7-0.5,1-0.7
		c0.4-0.3,0.7-0.5,1.1-0.8c0.3-0.2,0.5-0.4,0.7-0.6c3.2-2.5,6-5.5,8.2-8.7c0.3-0.4,0.5-0.8,0.8-1.2c0,0,0,0,0,0c0,0,0-0.1,0.1-0.1
		c0-0.1,0.1-0.1,0.1-0.2c0.2-0.2,0.3-0.5,0.5-0.7c0-0.1,0.1-0.1,0.1-0.2c0.1-0.2,0.2-0.4,0.3-0.5c0.2-0.3,0.3-0.5,0.4-0.8
		c0.2-0.3,0.4-0.7,0.5-1c0.2-0.3,0.4-0.7,0.5-1c0.2-0.3,0.3-0.7,0.5-1c0.2-0.3,0.3-0.7,0.5-1.1c0.1-0.2,0.2-0.5,0.3-0.7
		c0.1-0.2,0.1-0.3,0.2-0.5c0.1-0.3,0.2-0.6,0.3-0.9c0.1-0.4,0.3-0.7,0.4-1.1c0.1-0.3,0.2-0.6,0.3-1c0-0.1,0.1-0.2,0.1-0.3
		c0.1-0.3,0.2-0.5,0.2-0.8c0-0.1,0-0.1,0.1-0.2c0.1-0.3,0.1-0.6,0.2-0.8c0-0.1,0.1-0.3,0.1-0.4c0.1-0.3,0.1-0.5,0.2-0.8
		c0-0.1,0-0.2,0.1-0.3c0.1-0.3,0.1-0.6,0.2-1c0.1-0.3,0.1-0.6,0.2-0.9c0-0.2,0.1-0.5,0.1-0.7c0-0.2,0.1-0.4,0.1-0.6
		c0.1-0.7,0.2-1.5,0.3-2.2c0-0.3,0.1-0.7,0.1-1c0-0.5,0.1-0.9,0.1-1.4c0-0.4,0-0.8,0-1.2c0.7-7-3.5-15.2-3.8-15.7c0,0,0,0,0,0.1
		C776.6,510.4,783,520.6,781.3,535.5z"/>
	<g>
		<path class="st2" d="M416.1,524c0,0,51.8-37.3,128.8-50.6c0,0-7.6,9.7-12.2,19.5C532.7,492.9,471.5,499.4,416.1,524z"/>
		<path class="st3" d="M530.2,498.4c0,0-44.9,3.4-84.7,20.3c0,0,52.7-10.1,79.9-9.2L530.2,498.4z"/>
		<path class="st2" d="M523.4,515.7c0,0-49.7,1-87.6,11.4c0,0,52.6-6.4,85.1-2.3L523.4,515.7z"/>
		<path class="st3" d="M435.8,504.8l35.2-26.2v12.7c0,0,23.7-10.1,37.9-13.5v-2.6l-36.5-7L435.8,504.8z"/>
	</g>
	<path d="M931.3,575c0,0,0,0.1,0,0.1C931.3,575.1,931.3,575,931.3,575C931.3,575,931.3,575,931.3,575z"/>
	<path class="st0" d="M728.3,558L728.3,558c-0.5,0-0.9-0.1-1.3-0.2C727.3,557.8,727.7,557.9,728.3,558z"/>
	<path class="st0" d="M750,553.6c-1,0.4-2,0.8-2.9,1.1C748,554.4,749,554,750,553.6z"/>
	<g>
		<g>
			<g>
				<path class="st3" d="M200.6,607.9C200.5,607.9,200.5,607.9,200.6,607.9L200.6,607.9z M200.5,607.2l-0.1-0.8L200.5,607.2l0.1,0.4
					h0L200.5,607.2z"/>
			</g>
			<g>
				<path class="st3" d="M200.6,607.9C200.5,607.9,200.5,607.9,200.6,607.9L200.6,607.9z M200.5,607.2l-0.1-0.8L200.5,607.2l0.1,0.4
					h0L200.5,607.2z"/>
			</g>
		</g>
		<g>
			<g>
				<polygon class="st3" points="200.5,607.6 200.5,607.2 200.4,606.5 200.5,607.2 200.5,607.6 				"/>
				<path class="st3" d="M200.6,607.9L200.6,607.9C200.5,607.9,200.5,607.9,200.6,607.9z"/>
				<path class="st3" d="M201.8,606.2l-1,0.2l0.1-0.5C201.2,605.9,201.5,606,201.8,606.2z"/>
			</g>
			<g>
				<path class="st3" d="M200.5,607.2L200.5,607.2l0.1,0.4h0L200.5,607.2z M200.6,607.9C200.5,607.9,200.5,607.9,200.6,607.9
					L200.6,607.9z M201.1,609.8l0.1,0.2c0.1,0,0.3-0.1,0.4-0.2H201.1z"/>
				<path class="st3" d="M231.2,504.1c-1.4-1.6-3.4-2.6-5.5-2.6H221c-3.6,0-6.6,2.6-7.1,6.1l-10.3,67.1l-9.1-63.1
					c-0.8-5.8-5.9-10.2-11.7-10.2c-5.2,0-9.7,3.3-11.3,8.2l-21.4,66l-1.5-67.2c-0.1-3.9-3.3-7.1-7.2-7.1h-5.2c-2,0-3.8,0.8-5.2,2.2
					c-1.4,1.4-2.1,3.3-2,5.3l4.5,94.3l0.2,3.7c0.1,2.5,2.2,4.5,4.7,4.5h14.3c2,0,3.8-1.3,4.4-3.2l23.6-71.9l10.7,69.8l0.4,2.2
					c0.3,1.8,1.8,3,3.6,3h16.5c1.8,0,3.2-1.3,3.6-3l17.3-98.6C233.1,507.9,232.5,505.7,231.2,504.1z M200.4,606.5l0.1,0.8l0.1,0.4h0
					l-0.1-0.4L200.4,606.5z M200.6,607.9L200.6,607.9C200.5,607.9,200.5,607.9,200.6,607.9z M201.2,610l-0.1-0.2h0.5
					C201.5,609.8,201.3,609.9,201.2,610z M200.8,606.4l0.1-0.5c0.3,0,0.6,0.2,0.9,0.4L200.8,606.4z"/>
			</g>
		</g>
		<g>
			<g>
				<path class="st3" d="M293.4,550.8c0,1,0,2-0.1,3.1c-1,1.9-1.8,3.9-2.6,6c-0.4,1.2-0.8,2.4-1.2,3.7c-1.7,6-2.5,11.8-2.5,17.3v0.2
					c0,2.6,0.2,5,0.6,7.3l-3.7,21.1l-1.5,0.3c-1.2,0.2-2.5,0.3-4,0.4c-1.4,0-2.7,0.1-3.8,0.1s-2.3,0-3.6-0.1
					c-1.4-0.1-2.6-0.2-3.7-0.4l-2.1-0.4l0.4-2.1c1.5-8.1,2.7-15.4,3.9-22.3c1.3-7.8,2.6-15.1,3.9-22.2c0.2-1.2,0.3-2.4,0.5-3.6
					l0.1-0.7c0.2-1.4,0.3-2.5,0.3-3.5c0-3-0.8-5.2-2.2-6.5c-1.6-1.4-3.6-2.1-6.2-2.1c-1.9,0-3.9,0.4-6,1.3c-2,0.8-3.9,2.3-5.8,4.4
					c-1.9,2.2-3.7,5.2-5.3,9c-1.7,3.8-3,8.8-4.1,14.6c-1.1,5.5-2.1,10.9-3,16.2c-0.9,5.3-1.9,10.7-2.8,16.1l-0.3,1.8h-0.3
					c-0.6,1-1.8,1.7-3.1,1.7h-11.2c-1.1,0-2.1-0.5-2.8-1.3c-0.1-0.2-0.3-0.4-0.4-0.5c0,0-0.1-0.1-0.1-0.2c-0.3-0.7-0.5-1.5-0.3-2.3
					l10.3-58.7l3.1-17.6c0.4-2.4,0.8-4.6,1.2-6.6l0-0.3l2.9-16.6c0.6-3.5,3.6-6,7.1-6h3.9c2.1,0,4.2,0.9,5.5,2.6
					c1.4,1.6,2,3.8,1.6,5.9l-3.3,18.8c-0.4,2.2-0.9,4.6-1.3,6.9c-0.2,0.9-0.3,1.8-0.5,2.7c1.8-1.6,3.8-3,5.9-4.4
					c4.6-2.8,9.8-4.2,15.6-4.2c6.4,0,11.5,1.7,15.3,5.2C291.5,538.4,293.4,543.7,293.4,550.8z"/>
			</g>
		</g>
		<g>
			<path class="st3" d="M356.8,552.1c-1-5.2-3-9.5-6.1-12.9c-4.5-5-11.3-7.5-20.4-7.5c-7,0-13.1,1.6-18.3,4.7
				c-5.2,3.1-9.4,7.1-12.9,11.9c-2.7,3.8-4.9,7.9-6.4,12.3c-0.4,1.2-0.8,2.4-1.1,3.6c-1.6,5.8-2.5,11.4-2.5,16.7v0.2
				c0,9,2.3,15.9,6.8,20.8c4.5,5,11.3,7.4,20.3,7.4c7.1,0,13.3-1.5,18.5-4.6c5.2-3.1,9.5-7,12.9-11.8c0.9-1.3,1.8-2.7,2.6-4.1
				c1.4-2.4,2.6-5,3.6-7.7c0,0,0,0,0,0c0.5-1.3,0.9-2.6,1.3-4c1.6-5.8,2.5-11.4,2.5-16.8v0C357.6,557.3,357.3,554.6,356.8,552.1z
				 M339.6,572.2c-0.9,4.2-2.4,8.1-4.3,11.7c-1.9,3.5-4.3,6.4-7.3,8.6c-2.9,2.2-6.3,3.3-10.3,3.3c-3.9,0-6.7-1.2-8.7-3.6
				c-2-2.5-3.1-6.3-3.1-11.2c0-3.6,0.4-7.6,1.3-11.8c0.9-4.2,2.3-8.1,4.2-11.6c1.9-3.5,4.3-6.4,7.3-8.7c2.8-2.2,6.2-3.3,10.3-3.3
				c3.9,0,6.8,1.2,8.9,3.6c2.1,2.5,3.2,6.3,3.2,11.2C341,564,340.5,568,339.6,572.2z"/>
		</g>
		<g>
			<g>
				<path class="st3" d="M407.8,610.8l-9.5,0h-29.4c-2.1,0-4.1-0.2-6-0.5c-0.4-0.1-0.9-0.2-1.3-0.3c-2.4-0.6-4.5-1.6-6.3-3
					c-1.8-1.5-3.1-3.4-4.1-5.8c-0.9-2.2-1.3-4.8-1.4-7.9c0.8-1.1,1.5-2.3,2.1-3.3c1.4-2.5,2.7-5.2,3.7-8l0.1-0.3
					c0.4-1.2,0.9-2.5,1.3-3.9c1.7-5.9,2.5-11.8,2.5-17.4c0-3.1-0.3-6-0.8-8.6c-0.3-1.6-0.7-3.2-1.2-4.6l6.9-39.2
					c0.7-3.7,3.9-6.4,7.6-6.4h2.8c2.3,0,4.5,1,5.9,2.8c1.5,1.8,2.1,4.1,1.7,6.3l-10,57l-3.6,19.3c-0.2,1.2-0.4,2.3-0.4,3.1v0
					c0,0.2,0,0.3,0,0.4c0,1.5,0.2,2.3,0.4,2.8c0.3,0.5,0.6,0.9,0.9,1.1c0.4,0.3,0.8,0.4,1.3,0.5c0.4,0,0.8,0.1,1.2,0.1
					c0.5,0,1,0,1.6,0l0.2,0h14.1l0.6,1c0.6,1,2.4,4,3.6,5.3c3.5,4,6.6,5.5,6.6,5.5L407.8,610.8z"/>
			</g>
		</g>
		<g>
			<g>
				<g>
					<g>
						<g>
							<path class="st3" d="M452.1,534.8L452.1,534.8c-4.1-3.5-9.6-5.2-16.5-5.2c-6.7,0-12.9,1.5-18.3,4.5
								c-5.4,2.9-10.1,6.8-13.9,11.5c-3.9,4.7-6.9,10.1-8.9,16.1c-2,5.9-3.1,12-3.1,18.1c0,4.4,0.6,8.6,1.8,12.4
								c1.2,3.9,3.2,7.4,5.8,10.2c2.7,2.9,6.2,5.2,10.4,6.8c4.1,1.6,9.2,2.4,15.1,2.4H440c5.1,0,9.4-3.7,10.2-8.8l1.1-7.2l-24.8,0
								c-5.6,0-9.8-1.4-12.3-4.2c-2.3-2.6-3.8-6.4-4.2-11.4l5.6-0.9c5.9-0.9,11.5-2.1,16.6-3.5c5.1-1.5,9.6-3.4,13.5-5.7
								c3.9-2.4,7-5.3,9.3-8.7c2.3-3.5,3.5-7.6,3.5-12.2C458.4,543.1,456.3,538.3,452.1,534.8z M440.9,555.3
								c-0.8,1.4-2.1,2.8-4.1,4.1c-1.9,1.3-4.5,2.5-7.7,3.6c-3.2,1.1-7.3,2.1-12.2,3l-8,1.4c0.8-3.1,1.9-6.1,3.3-9
								c1.4-2.9,3.2-5.5,5.3-7.8c2.1-2.3,4.4-4.1,7-5.5c2.6-1.4,5.5-2.1,8.5-2.1c2.9,0,5.1,0.7,6.7,2.1c1.5,1.4,2.3,3.2,2.3,5.4
								C442.1,552.2,441.7,553.8,440.9,555.3z"/>
						</g>
					</g>
				</g>
			</g>
		</g>
		<g>
			<g>
				<path class="st3" d="M486.1,552.8c0,1.7,0.5,3.1,1.4,4.2c0.7,0.8,2.4,2.2,6.2,3.7l0.1,0l3.2,1.4c1.9,0.9,3.8,1.8,5.8,2.8
					c2.2,1.1,4.1,2.4,5.8,3.9c0.9,0.8,1.8,1.7,2.5,2.7v0c-0.2,0.7-0.3,1.4-0.4,2.2c-0.3,1.4-0.5,2.9-0.7,4.4l0,0.1
					c-0.3,2.5-0.4,5.1-0.4,7.8c0,1.3,0.1,2.7,0.2,4c0.2,1.8,0.4,3.4,0.8,4.9c0.2,0.8,0.4,1.6,0.6,2.3v0c-1.8,3-4.2,5.5-7,7.6
					c-3.2,2.3-7,4-11.3,5.2c-4.2,1.1-8.7,1.7-13.5,1.7h-17.7c-2.3,0-4.5-1-6-2.7c-1.5-1.7-2.1-4.1-1.8-6.3l0.8-4.9v-2l2.1,0H481
					c2.1,0,4.1-0.2,5.9-0.6c1.9-0.4,3.5-1,4.8-1.8c1.2-0.7,2.2-1.7,2.9-2.9c0.7-1.2,1.1-2.8,1.1-4.7c0-2.4-0.6-4-1.9-5.1
					c-1.5-1.3-3.8-2.6-6.8-3.8l-4.6-1.9c-1.5-0.6-3.1-1.4-4.8-2.3c-1.8-1-3.5-2.2-5-3.7c-1.5-1.5-2.8-3.5-3.8-5.8
					c-1-2.3-1.5-5.1-1.5-8.3c0-3.9,0.8-7.5,2.4-10.6c1.6-3.1,3.8-5.8,6.7-8c2.8-2.1,6.2-3.8,10-4.9c3.7-1.1,7.9-1.7,12.3-1.7h21.8
					l-0.7,15.5l-21.3,0.2c-3.8,0-6.9,0.6-9.4,1.9C487.1,548.2,486.1,550,486.1,552.8z"/>
			</g>
		</g>
		<g>
			<g>
				<g>
					<path class="st3" d="M571.8,532.5c-1.4-0.2-2.8-0.4-4.3-0.5c-2.1-0.2-4.2-0.3-6.2-0.3c-8.2,0-15.4,1.5-21.6,4.6
						c-5.7,2.8-10.5,6.5-14.5,11.1c-0.3,0.4-0.7,0.8-1,1.2c-4.1,5.1-7.3,10.8-9.4,17.4c-0.9,2.7-1.6,5.4-2.1,8.2
						c-0.3,1.4-0.5,2.8-0.7,4.2c0,0,0,0,0,0c-0.3,2.5-0.4,5.1-0.4,7.6c0,1.3,0.1,2.6,0.2,3.8c0.1,1.6,0.4,3.1,0.7,4.6
						c0.8,3.4,2.1,6.4,4,8.8c3.2,4.2,8,6.3,14.4,6.3c3.3,0,6.3-0.6,9.2-1.7c2.8-1.2,5.4-2.6,7.7-4.4c2.3-1.8,4.3-3.8,6-5.9
						c1.2-1.5,2.2-2.9,3-4.3l-2.5,14.2c-0.2,1.1,0.7,2.2,1.8,2.2h10.4c0.9,0,1.7-0.7,1.8-1.5l2.7-15.6l0-0.2c0-0.3,0.1-0.7,0.1-1
						c0.6-4.1,1.5-9.1,2.5-14.9l7.2-41.4C578.4,533.8,575.3,533,571.8,532.5z M559.8,563.5c-0.8,3.7-1.9,7.2-3.1,10.4
						c-1.6,4.4-3.6,8.3-5.8,11.5c-2.2,3.2-4.5,5.7-7.1,7.5c-2.5,1.7-4.9,2.5-7.5,2.5c-2.6,0-4.3-0.9-5.6-2.9
						c-1.4-2.2-2.1-5.4-2.1-9.6c0-4.7,0.7-9.3,2.1-13.8c1.4-4.4,3.4-8.5,6-11.9c2.6-3.5,5.7-6.3,9.2-8.3c3.5-2,7.5-3,11.9-3
						c1.5,0,2.8,0,4,0.1c0.3,0,0.7,0.1,1,0.1L559.8,563.5z"/>
				</g>
			</g>
		</g>
		<g>
			<g>
				<path class="st3" d="M637.1,610.8h-41.3c-2.2,0-4.3-0.2-6.2-0.5c-0.4-0.1-0.8-0.2-1.2-0.2c-2.4-0.6-4.5-1.6-6.3-3
					c-1.8-1.5-3.1-3.4-4.1-5.8c-0.4-1.1-0.8-2.4-1-3.7c-0.2-1.5-0.4-3.1-0.4-4.8c0-1.1,0.1-2.2,0.2-3.3c0.1-1,0.2-1.9,0.4-2.9
					c0.3-1.3,0.5-2.6,0.8-3.9l0-0.1l13.1-74.5c0.7-3.7,3.9-6.4,7.6-6.4h2.8c2.3,0,4.5,1,5.9,2.8c1.5,1.7,2.1,4,1.7,6.2l0,0.2
					l-12.8,73l-0.6,3.2c-0.1,0.5-0.2,1-0.2,1.5l0,0.2c-0.1,0.7-0.2,1.4-0.2,1.9c0,1.5,0.2,2.3,0.5,2.8c0.3,0.5,0.6,0.9,0.9,1.1
					c0.4,0.3,0.8,0.4,1.3,0.5c0.4,0,0.8,0.1,1.2,0.1c0.5,0,1,0,1.6,0l0.2,0H616l0.6,1c0.9,1.5,2.6,4.1,3.4,4.9
					c4.1,4.2,7.8,5.8,7.8,5.8L637.1,610.8z"/>
			</g>
		</g>
		<g>
			<g>
				<g>
					<path class="st3" d="M641.7,591.3c-2.3-2.6-3.8-6.4-4.2-11.4l5.6-0.9c5.9-0.9,11.5-2.1,16.6-3.5c5.1-1.5,9.7-3.4,13.5-5.7
						c3.9-2.4,7-5.3,9.3-8.7c2.3-3.5,3.5-7.6,3.5-12.2c0-5.8-2.1-10.6-6.3-14.1c-4.1-3.5-9.6-5.2-16.5-5.2c-6.7,0-12.9,1.5-18.3,4.5
						c-5.4,2.9-10.1,6.8-13.9,11.5c-3.9,4.7-6.9,10.1-8.9,16.1c-2,5.9-3.1,12-3.1,18.1c0,4.5,0.6,8.6,1.7,12.4
						c0.6,2.1,1.5,4.1,2.7,6c0.9,1.5,2,2.9,3.2,4.2c2.7,2.9,6.1,5.2,10.3,6.8c2.6,1,5.6,1.7,8.9,2.1c1,0.1,2,0.2,3,0.2
						c1,0.1,2,0.1,3.2,0.1h18.9c7.6,0,13.8-6.2,13.8-13.8v-2.1l-30.6,0C648.4,595.5,644.2,594.1,641.7,591.3z M641.6,559.3
						c1.4-2.8,3-5.2,4.9-7.3c1.9-2.1,4.1-3.8,6.4-5.1c2.3-1.2,4.8-1.8,7.5-1.8c2.3,0,4.1,0.5,5.2,1.5c1.1,1,1.6,2.2,1.6,3.8
						c0,1.4-0.3,2.6-0.9,3.8c-0.6,1.1-1.7,2.3-3.4,3.4c-1.8,1.2-4.2,2.3-7.2,3.4c-3.1,1.1-7.1,2-11.9,2.9l-4.6,0.8
						C640,562.9,640.7,561.1,641.6,559.3z"/>
				</g>
			</g>
		</g>
		<g>
		</g>
	</g>
	<line class="st2" x1="721.9" y1="605.4" x2="721.5" y2="607.6"/>
	<g>
		<path class="st0" d="M695.3,496.6l19.6,2.1l-20.5-8.5c-0.5-0.2-0.9-0.6-1.1-1l-4.6-10.5c-0.2-0.5-0.9-0.3-0.9,0.2l0.6,11.3
			c0,0.6-0.2,1.1-0.6,1.5l-16.2,16.4l18.2-10c0.3-0.1,0.6,0,0.7,0.3l3.6,14c0.1,0.4,0.1,0.9,0,1.3l-1.1,5.5c0,0.1,0.1,0.2,0.2,0.1
			l3.9-3.3l5.1,1.3c0.1,0,0.2-0.1,0.1-0.1l-3.3-4.8c-0.2-0.3-0.3-0.6-0.4-0.9l-3.7-14.4C694.8,496.9,695.1,496.6,695.3,496.6z"/>
		<path class="st0" d="M759.4,546.7C759.4,546.7,759.4,546.7,759.4,546.7c-3.7,6.7-10.9,9.6-14.3,10.7c0,0,0,0,0,0
			c-0.5,0.2-1,0.3-1.3,0.4c0,0-0.1,0-0.1,0c-0.1,0-0.2,0-0.3,0.1c-0.1,0-0.2,0-0.2,0c-4,0.8-8.6,1-13.3,0.4c-0.3,0-0.6-0.1-0.9-0.1
			c-0.3,0-0.6-0.1-0.9-0.1h0l0.1-0.1c-0.6-0.1-1-0.1-1.3-0.2c-0.1,0-0.2,0-0.2,0c0,0-0.1,0-0.1,0c0,0-0.1,0-0.1,0
			c-3.4-0.8-6.9-2.1-10.3-4.1c-0.7-0.4-1.3-0.8-1.9-1.3c-7.5-5.2-14.5-14.3-19.3-29.3l3.7,1.4l3-2.8c0,0,3.8,16.9,15.3,27.2v0
			c3.6,3.2,8,5.8,13.2,7c0,0,0,0,0.1,0c0.7,0.1,7.3,1.1,14.7-0.6c0.2-0.1,0.4-0.1,0.7-0.2c0.1,0,0.2,0,0.3-0.1c0.1,0,0.1,0,0.2-0.1
			c0,0,0.1,0,0.1,0c0,0,0,0,0.1,0c0.2-0.1,0.4-0.1,0.6-0.2c1-0.3,2-0.6,2.9-1.1c0.3-0.1,0.7-0.3,1-0.4c0,0,0,0,0,0
			c0.4-0.2,0.9-0.4,1.3-0.6c0,0,0,0,0.1,0c0.3-0.2,0.7-0.4,1-0.6C755.5,550.6,757.6,549,759.4,546.7
			C759.4,546.8,759.4,546.7,759.4,546.7z"/>
		<path class="st0" d="M781.6,529.8c0,1.1,0,1.9-0.1,3c-0.1,0.9-0.1,1.8-0.3,2.7c0,0,0,0,0,0c-0.1,0.8-0.2,1.5-0.4,2.3
			c-0.1,0.8-0.3,1.5-0.4,2.3c-0.1,0.3-0.1,0.5-0.2,0.7c0,0,0,0.1,0,0.1c0,0,0,0.1,0,0.1c-1.3,5.9-3.8,11.1-8.5,15.8
			c-2.4,2.9-5.6,5.9-8.7,8.1c-10,7-22,9.3-33.1,7.1c-0.7-0.1-1.4-0.3-2.1-0.4c-4.8-1.2-9.5-3.2-13.7-6c-0.7-0.4-1.3-0.9-1.9-1.3
			c-3.7-2.7-7-6.1-9.8-10c-4.1-5.8-6.5-12.2-7.5-18.8c1.3,4.6,3.4,9.1,6.3,13.3c3.2,4.6,7.2,8.4,11.6,11.3c0.6,0.4,1.3,0.8,2,1.2
			c6.7,3.9,14.4,6,22.1,6c0.4,0,0.8,0,1.1,0c0.2,0,0.3,0,0.5,0c0.3,0,0.7,0,1,0c0.4,0,0.8-0.1,1.2-0.1c0.4,0,0.7-0.1,1.1-0.1
			c0.2,0,0.4,0,0.6-0.1c0.3,0,0.6-0.1,1-0.1c0.4-0.1,0.9-0.1,1.3-0.2c0.4-0.1,0.7-0.1,1.1-0.2c0.1,0,0.1,0,0.2,0
			c0.4-0.1,0.8-0.2,1.2-0.3c0.3-0.1,0.7-0.2,1-0.3c0.2-0.1,0.4-0.1,0.6-0.2c0.7-0.2,1.3-0.4,2-0.6c0.2-0.1,0.4-0.1,0.6-0.2
			c1.2-0.4,2.4-0.9,3.6-1.5c0.3-0.1,0.6-0.3,0.9-0.4c0.2-0.1,0.3-0.1,0.4-0.2c0.3-0.1,0.5-0.3,0.8-0.4c0.1,0,0.1-0.1,0.2-0.1
			c1.2-0.6,2.4-1.4,3.6-2.1c0.3-0.2,0.7-0.5,1-0.7c0.4-0.3,0.7-0.5,1.1-0.8c0.3-0.2,0.5-0.4,0.7-0.6c0.2-0.2,0.5-0.4,0.7-0.6
			c0.2-0.1,0.3-0.3,0.5-0.4c0,0,0.1-0.1,0.1-0.1l0.1-0.1c0,0,0,0,0,0c0,0,0,0,0,0c0,0,0.1-0.1,0.1-0.1c0,0,0.1-0.1,0.2-0.1
			c0,0,0.1-0.1,0.1-0.1c0.2-0.2,0.4-0.4,0.7-0.6c0.2-0.2,0.4-0.4,0.6-0.6c0.2-0.2,0.4-0.4,0.6-0.6c0.2-0.2,0.4-0.4,0.6-0.6
			c0.3-0.3,0.5-0.6,0.8-0.9c0.2-0.2,0.4-0.5,0.6-0.7c0.1-0.1,0.2-0.3,0.3-0.4c0.2-0.2,0.3-0.4,0.5-0.6c0,0,0.1-0.1,0.1-0.1
			c0.1-0.1,0.1-0.1,0.2-0.2c0.5-0.6,0.9-1.2,1.3-1.8c0.3-0.4,0.5-0.8,0.8-1.2c0,0,0,0,0,0c0,0,0-0.1,0.1-0.1
			c0.1-0.2,0.2-0.3,0.3-0.5c0.1-0.2,0.2-0.4,0.3-0.5c0.1-0.2,0.2-0.4,0.3-0.5c0.2-0.3,0.3-0.5,0.4-0.8c0.2-0.3,0.4-0.7,0.5-1
			c0.2-0.3,0.4-0.7,0.5-1c0.2-0.3,0.3-0.7,0.5-1c0.2-0.3,0.3-0.7,0.5-1.1c0.1-0.2,0.2-0.5,0.3-0.7c0.1-0.2,0.1-0.3,0.2-0.5
			c0.1-0.3,0.2-0.6,0.3-0.9c0.1-0.4,0.3-0.7,0.4-1.1c0.1-0.3,0.2-0.6,0.3-1c0-0.1,0.1-0.2,0.1-0.3c0.1-0.3,0.2-0.5,0.2-0.8
			c0-0.1,0-0.1,0.1-0.2c0.1-0.3,0.1-0.6,0.2-0.8c0-0.1,0.1-0.3,0.1-0.4c0.1-0.3,0.1-0.5,0.2-0.8c0-0.1,0-0.2,0.1-0.3
			c0.1-0.3,0.1-0.6,0.2-1c0.1-0.3,0.1-0.6,0.2-0.9c0-0.2,0.1-0.5,0.1-0.7c0-0.2,0.1-0.4,0.1-0.6c0.1-0.7,0.2-1.5,0.3-2.2
			c0-0.3,0.1-0.7,0.1-1c0-0.5,0.1-0.9,0.1-1.4c0-0.4,0-0.8,0-1.2c0.7-7-3.5-15.2-3.8-15.7c0,0,0,0,0,0.1
			C776.6,510.2,782,517.8,781.6,529.8z"/>
	</g>
	<g>
		<g>
			<g>
				<g>
					<path class="st2" d="M779.6,524.9c0,0.4,0,0.8,0,1.2c0,0.5,0,0.9-0.1,1.4c0,0.3,0,0.7-0.1,1c-0.1,0.7-0.1,1.5-0.3,2.2
						c0,0.2,0,0.4-0.1,0.6c0,0.2-0.1,0.5-0.1,0.7c0,0.3-0.1,0.6-0.2,0.9c-0.1,0.3-0.1,0.6-0.2,1c0,0.1,0,0.2-0.1,0.3
						c0,0.3-0.1,0.5-0.2,0.8c0,0.1-0.1,0.3-0.1,0.4c-0.1,0.3-0.1,0.6-0.2,0.8c0,0.1,0,0.1-0.1,0.2c-0.1,0.3-0.2,0.6-0.2,0.8
						c0,0.1-0.1,0.2-0.1,0.3c-0.1,0.3-0.2,0.6-0.3,1c-0.1,0.4-0.2,0.7-0.4,1.1c-0.1,0.3-0.2,0.6-0.3,0.9c-0.1,0.2-0.1,0.3-0.2,0.5
						c-0.1,0.3-0.2,0.5-0.3,0.7c-0.1,0.4-0.3,0.7-0.5,1.1c-0.2,0.3-0.3,0.7-0.5,1c-0.2,0.3-0.3,0.7-0.5,1c-0.2,0.3-0.3,0.7-0.5,1
						c-0.1,0.3-0.3,0.5-0.4,0.8c-0.1,0.2-0.2,0.4-0.3,0.5c-0.1,0.2-0.2,0.4-0.3,0.5c-0.1,0.2-0.2,0.3-0.3,0.5c0,0,0,0.1-0.1,0.1
						c0,0,0,0,0,0c-0.3,0.4-0.5,0.8-0.8,1.2c-0.2,0.3-0.4,0.6-0.6,0.9c-0.2,0.3-0.4,0.6-0.7,0.9c-0.1,0.1-0.1,0.1-0.2,0.2
						c0,0-0.1,0.1-0.1,0.1c-0.2,0.2-0.3,0.4-0.5,0.6c-0.1,0.1-0.2,0.3-0.3,0.4c-0.2,0.2-0.4,0.5-0.6,0.7c-0.3,0.3-0.5,0.6-0.8,0.9
						c-0.2,0.2-0.4,0.4-0.6,0.6c-0.2,0.2-0.4,0.4-0.6,0.6c-0.2,0.2-0.4,0.4-0.6,0.6c-0.2,0.2-0.4,0.4-0.7,0.6c0,0-0.1,0.1-0.1,0.1
						c0,0-0.1,0.1-0.2,0.1c0,0-0.1,0.1-0.1,0.1c0,0,0,0,0,0c0,0,0,0,0,0L765,557c0,0-0.1,0.1-0.1,0.1c-0.2,0.1-0.3,0.3-0.5,0.4
						c-0.2,0.2-0.5,0.4-0.7,0.6c-0.2,0.2-0.5,0.4-0.7,0.6c-0.4,0.3-0.7,0.5-1.1,0.8c-0.3,0.2-0.7,0.5-1,0.7
						c-1.2,0.8-2.4,1.5-3.6,2.1c-0.1,0-0.1,0.1-0.2,0.1c-0.3,0.1-0.5,0.3-0.8,0.4c-0.1,0.1-0.3,0.1-0.4,0.2
						c-0.3,0.1-0.6,0.3-0.9,0.4c-1.2,0.5-2.4,1-3.6,1.5c-0.2,0.1-0.4,0.1-0.6,0.2c-0.6,0.2-1.3,0.4-2,0.6c-0.2,0.1-0.4,0.1-0.6,0.2
						c-0.3,0.1-0.7,0.2-1,0.3c-0.4,0.1-0.8,0.2-1.2,0.3c-0.1,0-0.1,0-0.2,0c-0.4,0.1-0.7,0.1-1.1,0.2c-0.4,0.1-0.9,0.2-1.3,0.2
						c-0.3,0-0.6,0.1-1,0.1c-0.2,0-0.4,0.1-0.6,0.1c-0.4,0-0.7,0.1-1.1,0.1c-0.4,0-0.8,0.1-1.2,0.1c-0.3,0-0.7,0-1,0
						c-0.2,0-0.3,0-0.5,0c-0.4,0-0.8,0-1.1,0c-7.7,0-15.3-2-22.1-6c-0.7-0.4-1.3-0.8-2-1.2l1.4-7.9c0.6,0.5,1.3,0.9,1.9,1.3
						c3.4,2,6.8,3.4,10.3,4.1c0,0,0.1,0,0.1,0c0,0,0.1,0,0.1,0c0.1,0,0.2,0,0.2,0c0.4,0.1,0.8,0.2,1.2,0.3h0c0.3,0,0.6,0.1,0.9,0.1
						c0.3,0,0.6,0.1,0.9,0.1c4.7,0.6,9.3,0.4,13.3-0.4c0,0,0.1,0,0.2,0c0.1,0,0.2,0,0.3-0.1c0,0,0.1,0,0.1,0
						c0.3-0.1,0.8-0.2,1.3-0.4c0,0,0,0,0,0c3.4-1,10.6-3.9,14.3-10.7c0,0,0,0,0,0c0,0,0,0,0,0c0.9-1.3,1.8-2.8,2.4-4.4
						c1.2-3,1.9-6.8,1.9-11.1c0-5.7-1.5-9.5-4.5-11.4c-3.3-2.1-7.9-3.2-13.7-3.2c-1.2,0-2.4,0-3.6,0.1c-0.7,0.1-1.5,0.1-2.2,0.2
						l-6.6,37.8l-2.2-0.5c-5.3-1.2-10.2-3.8-14.5-7.9l-0.8-0.8l7.7-44l1.6-0.2c3-0.4,6.4-0.8,10.4-1.1l0.1,0c0.5,0,1.1-0.1,1.6-0.1
						c3.2-0.3,6.4-0.4,9.3-0.4c2.5,0,5,0.1,7.4,0.4c2.1,0.2,4.2,0.5,6.2,1c4.5,0.9,8.5,2.5,12,4.8c1.5,1,2.9,2.1,4.1,3.3
						c0,0,0,0,0,0c0,0,0,0,0,0C776.1,509.7,780.3,517.9,779.6,524.9z"/>
					<path class="st2" d="M773.5,547.1c0,0.1-0.1,0.1-0.1,0.2c-0.2,0.2-0.3,0.5-0.5,0.7c0,0.1-0.1,0.1-0.1,0.2
						c0.1-0.2,0.2-0.3,0.3-0.5C773.2,547.4,773.4,547.3,773.5,547.1z"/>
				</g>
			</g>
		</g>
		<g>
			<g>
				<path class="st2" d="M942.9,593.1c-0.4,1.3-0.8,2.2-1.2,2.6c0.1,0.1,0.1,0.3,0.2,0.4c0.1-0.2,0.2-0.3,0.3-0.5
					c0.2-0.4,0.4-0.8,0.6-1.2C942.9,594,943,593.6,942.9,593.1z M941.1,575.1c0,0,0-0.1,0-0.1c0,0,0,0,0,0
					C941.1,575,941.1,575.1,941.1,575.1z"/>
				<path class="st2" d="M949.4,533.7c-2.1-1-4.9-2-8.4-2.8c-3.7-0.9-7.7-1.4-11.8-1.4c-4.6,0-8.9,0.6-12.7,1.7
					c-3.8,1.1-7.2,2.8-10,4.9c-2.9,2.2-5.1,4.8-6.7,8c-1.6,3.1-2.4,6.7-2.4,10.6c0,3.2,0.5,6,1.6,8.3c1,2.3,2.3,4.2,3.8,5.8
					c1.5,1.5,3.2,2.8,5,3.7c1.7,0.9,3.3,1.7,4.8,2.3l4.6,1.9c3,1.2,5.2,2.4,6.8,3.8c1.3,1.1,1.9,2.7,1.9,5.1c0,1.9-0.4,3.5-1.1,4.7
					c-0.8,1.3-1.7,2.2-2.9,2.9c-1.3,0.8-3,1.4-4.8,1.8c-1.8,0.4-3.8,0.6-5.9,0.6H887l-1.1,0l-2.2,11.7c0.2,0.9,0.6,1.7,1.2,2.5
					c1,1.2,2.5,1.8,4,1.8h20.7c4.8,0,9.3-0.6,13.5-1.7c4.2-1.1,8-2.9,11.3-5.2c3.2-2.3,5.7-5.1,7.6-8.5c-0.1-0.1-0.1-0.3-0.2-0.4
					c0.4-0.4,0.8-1.3,1.2-2.6c3.3-10.3-1.2-20.8-1.5-21.3c0,0,0,0,0,0c-0.1-0.2-0.2-0.4-0.4-0.6c-0.4-0.6-0.9-1.1-1.4-1.6
					c-0.3-0.3-0.6-0.6-0.9-0.8c-1.7-1.5-3.7-2.8-5.8-3.9c-2-1-3.9-1.9-5.8-2.8l-3.2-1.4l-0.1,0c-3.8-1.5-5.5-2.8-6.2-3.7
					c-1-1.1-1.4-2.5-1.4-4.2c0-2.8,0.9-4.6,3-5.6c2.4-1.3,5.6-1.9,9.4-1.9c3,0,6,0.4,8.7,1.2c2.4,0.7,4.4,1.4,6,2
					c1.3,0.6,2.9,0.1,3.6-1.2c0.9-1.7,1.7-3.4,2.4-5.1c0.7-1.7,1.2-3.5,1.6-5.3C951.2,535.6,950.6,534.3,949.4,533.7z M941.1,575.1
					c0-0.1,0-0.1,0-0.2c0,0,0,0,0,0C941.1,575,941.1,575.1,941.1,575.1z"/>
			</g>
		</g>
		<g>
			<g>
				<path class="st2" d="M826.5,610.8h-32.2c-2.2,0-4.3-0.2-6.2-0.5c-0.4-0.1-0.8-0.2-1.2-0.2c-2.4-0.6-4.5-1.6-6.3-3.1
					c-1.8-1.5-3.1-3.4-4.1-5.8c-0.4-1.1-0.8-2.4-1-3.7c-0.2-1.5-0.4-3.1-0.4-4.8c0-1.1,0.1-2.2,0.2-3.3c0.1-0.9,0.2-1.9,0.4-2.9
					c0.3-1.3,0.5-2.7,0.8-3.9l0-0.1l6.7-38.3c0,0,0,0,0,0l0.5-2.6l5.9-33.5c0.7-3.7,3.9-6.4,7.6-6.4h2.8c2.3,0,4.5,1,5.9,2.8
					c1.5,1.7,2.1,4,1.7,6.3l0,0.2l-12.8,73l-0.6,3.2c-0.1,0.5-0.2,1-0.2,1.5l0,0.2c-0.1,0.7-0.1,1.4-0.1,1.9c0,1.5,0.2,2.3,0.4,2.8
					c0.3,0.5,0.6,0.9,0.9,1.1c0.4,0.3,0.8,0.4,1.3,0.5c0.4,0,0.8,0.1,1.2,0.1c0.5,0,1,0.1,1.6,0l0.2,0h16.9
					c0.6,4.9,2.4,8.7,5.2,11.4"/>
			</g>
		</g>
		<path class="st2" d="M730,572.1l-6.3,35.9c-0.4,2.2-2.3,3.8-4.5,3.8h-9.7c-1.4,0-2.7-0.6-3.5-1.7c-0.9-1.1-1.2-2.4-1-3.8l0.2-1.3
			l7.1-40.7c0.6,0.5,1.3,0.9,1.9,1.3c4.2,2.8,8.9,4.8,13.7,6C728.6,571.8,729.3,572,730,572.1z"/>
		<g>
			<g>
				<path class="st2" d="M894.5,531.7l-7.1,39.6l-4.6,24.1l-2.2,11.7l-0.3,1.3c-0.3,1.7-1.8,2.9-3.6,2.9h-11.4
					c-1.1,0-2.1-0.5-2.8-1.3c-0.7-0.8-1-1.9-0.8-3l0.9-4.9c-1,0.9-2,1.8-3.2,2.7c-2.4,1.8-5.2,3.4-8.2,4.6c-3.1,1.3-6.4,1.9-9.8,1.9
					c-4.9,0-9.1-1.1-12.4-3.2c-0.9-0.6-1.8-1.3-2.6-2c-2.8-2.7-4.6-6.5-5.2-11.4c-0.2-1.4-0.3-2.9-0.3-4.5c0-1.5,0.1-3.2,0.3-5.1
					c0.2-1.8,0.4-3.5,0.7-5.3l8.5-48.5l1.5-0.3c1.1-0.2,2.5-0.4,3.9-0.5c1.5-0.1,2.7-0.1,3.8-0.1c1.1,0,2.3,0,3.6,0.1
					c1.3,0.1,2.6,0.3,3.7,0.5l2.1,0.4l-8.2,46.6c-0.6,3-0.8,5.6-0.8,7.9c0,3.2,0.7,5.5,2,6.7c1.4,1.3,3.3,1.9,5.7,1.9
					c2.2,0,4.3-0.7,6.5-2.1c2.3-1.4,4.4-3.6,6.5-6.5c2.1-2.9,4-6.6,5.8-11c1.2-3,2.2-6.5,3.1-10.2l6.3-33.9h1.6
					c1.1-0.2,2.3-0.3,3.5-0.4c1.4-0.1,2.7-0.1,3.8-0.1c1.1,0,2.3,0,3.7,0.1c1.4,0.1,2.6,0.3,3.7,0.5L894.5,531.7z"/>
			</g>
		</g>
	</g>
	<path class="st1" d="M931.3,575c0,0,0,0.1,0,0.1C931.3,575.1,931.3,575,931.3,575C931.3,575,931.3,575,931.3,575z"/>
</g>
</svg>
